<svg xmlns="http://www.w3.org/2000/svg" width="13.998" height="13.998" viewBox="0 0 13.998 13.998">
  <path id="Path_3" data-name="Path 3" d="M7,1.244a21.461,21.461,0,0,1,2.8.078,3.607,3.607,0,0,1,1.322.233,2.731,2.731,0,0,1,1.322,1.322A3.607,3.607,0,0,1,12.676,4.2c0,.7.078.933.078,2.8a21.46,21.46,0,0,1-.078,2.8,3.607,3.607,0,0,1-.233,1.322,2.731,2.731,0,0,1-1.322,1.322,3.607,3.607,0,0,1-1.322.233c-.7,0-.933.078-2.8.078a21.46,21.46,0,0,1-2.8-.078,3.607,3.607,0,0,1-1.322-.233,2.731,2.731,0,0,1-1.322-1.322A3.607,3.607,0,0,1,1.322,9.8c0-.7-.078-.933-.078-2.8a21.46,21.46,0,0,1,.078-2.8,3.607,3.607,0,0,1,.233-1.322A2.793,2.793,0,0,1,2.1,2.1a1.315,1.315,0,0,1,.778-.544A3.607,3.607,0,0,1,4.2,1.322,21.46,21.46,0,0,1,7,1.244M7,0A22.978,22.978,0,0,0,4.122.078,4.8,4.8,0,0,0,2.411.389a3.044,3.044,0,0,0-1.244.778A3.044,3.044,0,0,0,.389,2.411,3.543,3.543,0,0,0,.078,4.122,22.978,22.978,0,0,0,0,7,22.978,22.978,0,0,0,.078,9.876a4.8,4.8,0,0,0,.311,1.711,3.044,3.044,0,0,0,.778,1.244,3.044,3.044,0,0,0,1.244.778,4.8,4.8,0,0,0,1.711.311A22.978,22.978,0,0,0,7,14a22.978,22.978,0,0,0,2.877-.078,4.8,4.8,0,0,0,1.711-.311,3.263,3.263,0,0,0,2.022-2.022,4.8,4.8,0,0,0,.311-1.711C13.92,9.1,14,8.865,14,7a22.978,22.978,0,0,0-.078-2.877,4.8,4.8,0,0,0-.311-1.711,3.044,3.044,0,0,0-.778-1.244A3.044,3.044,0,0,0,11.587.389,4.8,4.8,0,0,0,9.876.078,22.978,22.978,0,0,0,7,0M7,3.422A3.52,3.52,0,0,0,3.422,7,3.577,3.577,0,1,0,7,3.422m0,5.91A2.291,2.291,0,0,1,4.666,7,2.291,2.291,0,0,1,7,4.666,2.291,2.291,0,0,1,9.332,7,2.291,2.291,0,0,1,7,9.332m3.733-6.921a.855.855,0,1,0,.855.855.863.863,0,0,0-.855-.855" fill="#fff" fill-rule="evenodd"/>
</svg>
