<svg id="Component_47_1" data-name="Component 47 – 1" xmlns="http://www.w3.org/2000/svg" width="222.67" height="92" viewBox="0 0 222.67 92">
  <path id="Path_18" data-name="Path 18" d="M0,0H222.67V92H0Z" fill="#1a3571"/>
  <g id="Group_5" data-name="Group 5" transform="translate(4 34)">
    <g id="Group_1" data-name="Group 1" transform="translate(30 -2.411)">
      <path id="Subtraction_5" data-name="Subtraction 5" d="M18.5,37A18.442,18.442,0,0,1,5.288,31.45H12.95V29.6H9.25V19.425h18.5V29.6h-3.7v1.85h7.661A18.443,18.443,0,0,1,18.5,37Zm-5.792-3.7h0a18.591,18.591,0,0,0,11.582,0H19.425V22.2H24.05v-.925H12.95V22.2h4.625V33.3H12.708ZM3.7,29.6a18.48,18.48,0,0,1,0-22.2l3.7,0V29.6H3.7Zm0-16.672h0a18.6,18.6,0,0,0,0,11.582V12.931ZM33.3,29.6H29.6V7.4h3.7a18.477,18.477,0,0,1,0,22.2Zm0-16.892h0V24.291a18.591,18.591,0,0,0,0-11.581Zm-5.55,4.866H9.25V7.4h3.7V5.55H5.288a18.485,18.485,0,0,1,26.423,0H24.05V7.4h3.7V17.575ZM12.95,14.8v.925h11.1V14.8H19.425V3.7h4.865a18.591,18.591,0,0,0-11.582,0h4.867V14.8Z" transform="translate(0 -3.589)" fill="#bf2a2a"/>
    </g>
    <text id="HIERROFE" transform="translate(81 21)" fill="#fff" font-size="20" font-family="RobotoSlab-Black, Roboto Slab" font-weight="800"><tspan x="0" y="0">HIERROFE</tspan></text>
  </g>
</svg>
