<svg xmlns="http://www.w3.org/2000/svg" xmlns:xlink="http://www.w3.org/1999/xlink" width="20" height="17" viewBox="0 0 20 17">
    <defs>
        <path id="a" d="M0 15.5c0-.828.665-1.5 1.503-1.5h16.994c.83 0 1.503.666 1.503 1.5 0 .828-.665 1.5-1.503 1.5H1.503C.673 17 0 16.334 0 15.5zm0-7C0 7.672.665 7 1.503 7h16.994C19.327 7 20 7.666 20 8.5c0 .828-.665 1.5-1.503 1.5H1.503C.673 10 0 9.334 0 8.5zm0-7C0 .672.665 0 1.503 0h16.994C19.327 0 20 .666 20 1.5c0 .828-.665 1.5-1.503 1.5H1.503C.673 3 0 2.334 0 1.5z"/>
    </defs>
    <g fill="none" fill-rule="evenodd">
        <mask id="b" fill="#fff">
            <use xlink:href="#a"/>
        </mask>
        <use fill="#fff" xlink:href="#a"/>
        <g fill="#fff" mask="url(#b)">
            <path d="M0 0h20v17H0z"/>
        </g>
    </g>
</svg>
