<?xml-stylesheet type="text/css" href=href="https://fonts.googleapis.com/css2?family=Lato:wght@300;400;700;900&family=Roboto+Slab:wght@800&display=swap" ?>

<svg xmlns="http://www.w3.org/2000/svg" width="277" height="56" viewBox="0 0 277 56">
  <g id="Group_3" data-name="Group 3" transform="translate(0 16)">
    <text id="HIERROFE" transform="translate(70 28)" fill="#fff" font-size="40" font-family= "Roboto Slab" font-weight="800"><tspan x="0" y="0">HIERROFE</tspan></text>
    <g id="Group_1" data-name="Group 1" transform="translate(0 -16.446)">
      <g id="Subtraction_5" data-name="Subtraction 5" transform="translate(0 0.446)" fill="#bf2a2a">
        <path d="M 27.99970245361328 55.5 C 24.23855209350586 55.5 20.59397125244141 54.75463104248047 17.16720199584961 53.28461074829102 C 14.22888374328613 52.02408981323242 11.56428146362305 50.28276824951172 9.231027603149414 48.10013198852539 L 19.59988212585449 48.10013198852539 L 20.09988212585449 48.10013198852539 L 20.09988212585449 47.60013198852539 L 20.09988212585449 44.80038070678711 L 20.09988212585449 44.30038070678711 L 19.59988212585449 44.30038070678711 L 14.49983215332031 44.30038070678711 L 14.49983215332031 29.89987182617188 L 41.4995002746582 29.89987182617188 L 41.4995002746582 44.30038070678711 L 36.40008163452148 44.30038070678711 L 35.90008163452148 44.30038070678711 L 35.90008163452148 44.80038070678711 L 35.90008163452148 47.60013198852539 L 35.90008163452148 48.10013198852539 L 36.40008163452148 48.10013198852539 L 46.76864242553711 48.10013198852539 C 44.43529510498047 50.28277587890625 41.7706298828125 52.02408981323242 38.83223342895508 53.28461074829102 C 35.40542221069336 54.75463104248047 31.76083183288574 55.5 27.99970245361328 55.5 Z M 19.23386192321777 49.9005126953125 L 19.07730102539062 50.87535095214844 C 21.94536209106445 51.82093048095703 24.94601249694824 52.30038070678711 27.99590110778809 52.30038070678711 C 31.04583168029785 52.30038070678711 34.04811096191406 51.82095336914062 36.91935348510742 50.87542343139648 L 36.76296234130859 49.9005126953125 L 29.8995418548584 49.9005126953125 L 29.8995418548584 34.10013198852539 L 36.40008163452148 34.10013198852539 L 36.90008163452148 34.10013198852539 L 36.90008163452148 33.60013198852539 L 36.90008163452148 32.20025253295898 L 36.90008163452148 31.70025253295898 L 36.40008163452148 31.70025253295898 L 19.59988212585449 31.70025253295898 L 19.09988212585449 31.70025253295898 L 19.09988212585449 32.20025253295898 L 19.09988212585449 33.60013198852539 L 19.09988212585449 34.10013198852539 L 19.59988212585449 34.10013198852539 L 26.09982109069824 34.10013198852539 L 26.09982109069824 49.9005126953125 L 19.23386192321777 49.9005126953125 Z M 50.15052032470703 44.30038070678711 L 45.29985046386719 44.30038070678711 L 45.29985046386719 11.69962215423584 L 50.14894104003906 11.69962215423584 C 51.82767105102539 13.97393608093262 53.13806915283203 16.47940254211426 54.04527282714844 19.15021133422852 C 55.01056289672852 21.9920825958252 55.5 24.96958160400391 55.5 28.00000190734863 C 55.5 31.0304126739502 55.01056289672852 34.00791168212891 54.04527282714844 36.84979248046875 C 53.13882446289062 39.51839447021484 51.82906341552734 42.02371978759766 50.15052032470703 44.30038070678711 Z M 50.74257278442383 18.6773509979248 L 50.32409286499023 18.74173164367676 L 50.32331085205078 18.74185180664062 L 49.89933013916016 18.80708122253418 L 49.89934158325195 19.23606109619141 L 49.8999137878418 36.76467132568359 L 50.87477111816406 36.92120361328125 C 51.82034301757812 34.0531005859375 52.2997932434082 31.05221176147461 52.2997932434082 28.00189208984375 C 52.2997932434082 24.95183181762695 51.82043075561523 21.94990158081055 50.87502288818359 19.07950210571289 L 50.74257278442383 18.6773509979248 Z M 10.70011234283447 44.30038070678711 L 5.849258422851562 44.30038070678711 C 4.170958042144775 42.02385330200195 2.861166477203369 39.5184326171875 1.954761862754822 36.84993362426758 C 0.9894518852233887 34.00807189941406 0.5000019073486328 31.03052139282227 0.5000019073486328 28.00000190734863 C 0.5000019073486328 24.969482421875 0.9894518852233887 21.9919319152832 1.954761862754822 19.15006256103516 C 2.861517906188965 16.48055458068848 4.171877861022949 13.97434234619141 5.851089000701904 11.69714832305908 L 10.70011234283447 11.69939041137695 L 10.70011234283447 26.60013198852539 L 10.70011234283447 29.39987182617188 L 10.70011234283447 44.30038070678711 Z M 5.123271942138672 19.41415214538574 C 4.179001808166504 22.28215217590332 3.700212001800537 25.28298187255859 3.700212001800537 28.33327102661133 C 3.700212001800537 31.3854923248291 4.179641723632812 34.38764190673828 5.125181674957275 37.25633239746094 L 6.100051879882812 37.09981155395508 L 6.100051879882812 19.57051277160645 L 6.100051879882812 19.11029243469238 L 5.641411781311035 19.07222175598145 L 5.44813871383667 20.04662322998047 L 5.123271942138672 19.41415214538574 Z M 41.4995002746582 26.10013198852539 L 14.49983215332031 26.10013198852539 L 14.49983215332031 11.69962215423584 L 19.59988212585449 11.69962215423584 L 20.09988212585449 11.69962215423584 L 20.09988212585449 11.19962215423584 L 20.09988212585449 8.399871826171875 L 20.09988212585449 7.899871826171875 L 19.59988212585449 7.899871826171875 L 9.231030464172363 7.899871826171875 C 11.56429672241211 5.717227935791016 14.22889232635498 3.975903511047363 17.16720199584961 2.715391874313354 C 20.59397125244141 1.24537193775177 24.23855209350586 0.5000019073486328 27.99970245361328 0.5000019073486328 C 31.76083183288574 0.5000019073486328 35.40542221069336 1.24537193775177 38.83223342895508 2.715391874313354 C 41.77062225341797 3.975912570953369 44.43529510498047 5.717227935791016 46.76864242553711 7.899871826171875 L 36.40008163452148 7.899871826171875 L 35.90008163452148 7.899871826171875 L 35.90008163452148 8.399871826171875 L 35.90008163452148 11.19962215423584 L 35.90008163452148 11.69962215423584 L 36.40008163452148 11.69962215423584 L 41.4995002746582 11.69962215423584 L 41.4995002746582 26.10013198852539 Z M 19.09988212585449 21.89987182617188 L 19.09988212585449 22.39987182617188 L 19.09988212585449 23.79975128173828 L 19.09988212585449 24.29975128173828 L 19.59988212585449 24.29975128173828 L 36.40008163452148 24.29975128173828 L 36.90008163452148 24.29975128173828 L 36.90008163452148 23.79975128173828 L 36.90008163452148 22.39987182617188 L 36.90008163452148 21.89987182617188 L 36.40008163452148 21.89987182617188 L 29.8995418548584 21.89987182617188 L 29.8995418548584 6.099492073059082 L 36.76232147216797 6.099492073059082 L 36.91887283325195 5.124631881713867 C 34.05076217651367 4.179061889648438 31.05012130737305 3.699621915817261 28.00030136108398 3.699621915817261 C 24.95035171508789 3.699621915817261 21.94806098937988 4.179051876068115 19.07682228088379 5.124581813812256 L 19.23321151733398 6.099492073059082 L 26.09982109069824 6.099492073059082 L 26.09982109069824 21.89987182617188 L 19.59988212585449 21.89987182617188 L 19.09988212585449 21.89987182617188 Z" stroke="none"/>
        <path d="M 27.99970245361328 55 C 31.69267272949219 55 35.27094268798828 54.26826095581055 38.63511276245117 52.82510375976562 C 41.12051773071289 51.75891494750977 43.40642547607422 50.34238052368164 45.45685958862305 48.60013198852539 L 36.40008163452148 48.60013198852539 L 35.40008163452148 48.60013198852539 L 35.40008163452148 47.60013198852539 L 35.40008163452148 44.80038070678711 L 35.40008163452148 43.80038070678711 L 36.40008163452148 43.80038070678711 L 40.9995002746582 43.80038070678711 L 40.9995002746582 30.39987182617188 L 14.99983215332031 30.39987182617188 L 14.99983215332031 43.80038070678711 L 19.59988212585449 43.80038070678711 L 20.59988212585449 43.80038070678711 L 20.59988212585449 44.80038070678711 L 20.59988212585449 47.60013198852539 L 20.59988212585449 48.60013198852539 L 19.59988212585449 48.60013198852539 L 10.54277992248535 48.60013198852539 C 12.5931396484375 50.34237670898438 14.87898540496826 51.75891494750977 17.36432266235352 52.82510375976562 C 20.72845268249512 54.26826095581055 24.30671119689941 55 27.99970245361328 55 M 19.23386192321777 49.4005126953125 L 25.59982109069824 49.4005126953125 L 25.59982109069824 34.60013198852539 L 19.59988212585449 34.60013198852539 L 18.59988212585449 34.60013198852539 L 18.59988212585449 33.60013198852539 L 18.59988212585449 32.20025253295898 L 18.59988212585449 31.20025253295898 L 19.59988212585449 31.20025253295898 L 36.40008163452148 31.20025253295898 L 37.40008163452148 31.20025253295898 L 37.40008163452148 32.20025253295898 L 37.40008163452148 33.60013198852539 L 37.40008163452148 34.60013198852539 L 36.40008163452148 34.60013198852539 L 30.3995418548584 34.60013198852539 L 30.3995418548584 49.4005126953125 L 36.76296234130859 49.4005126953125 L 37.07575225830078 51.3503303527832 C 34.15396118164062 52.3125114440918 31.09905242919922 52.80038070678711 27.99590110778809 52.80038070678711 C 24.89273262023926 52.80038070678711 21.83940124511719 52.31247329711914 18.92074203491211 51.35020065307617 L 19.23386192321777 49.4005126953125 M 49.89650726318359 43.80038070678711 C 51.47345352172852 41.61959075927734 52.70884323120117 39.22965240478516 53.57183074951172 36.68898010253906 C 54.51949310302734 33.89900207519531 55 30.97560119628906 55 28.00000190734863 C 55 25.02439117431641 54.51949310302734 22.10099220275879 53.57183074951172 19.31102180480957 C 52.70814514160156 16.76830291748047 51.47217559814453 14.37821292877197 49.89509582519531 12.19962215423584 L 45.79985046386719 12.19962215423584 L 45.79985046386719 43.80038070678711 L 49.89650726318359 43.80038070678711 M 51.08502197265625 18.1187915802002 L 51.34993362426758 18.92309188842773 C 52.31199264526367 21.84404182434082 52.7997932434082 24.89859199523926 52.7997932434082 28.00189208984375 C 52.7997932434082 31.10549163818359 52.31188201904297 34.15905380249023 51.34963226318359 37.07776260375977 L 49.3999137878418 36.76468276977539 L 49.39934158325195 19.2360725402832 L 49.39931106567383 18.37813186645508 L 50.24728012084961 18.24767112731934 L 50.24806213378906 18.24755096435547 L 51.08502197265625 18.1187915802002 M 10.20011234283447 43.80038070678711 L 10.20011234283447 29.39987182617188 L 10.20011234283447 26.60013198852539 L 10.20011234283447 12.19915962219238 L 6.10499095916748 12.197265625 C 4.527412414550781 14.37857627868652 3.291483640670776 16.76933097839355 2.428201913833618 19.31088256835938 C 1.480511903762817 22.10085105895996 1.000001907348633 25.0242919921875 1.000001907348633 28.00000190734863 C 1.000001907348633 30.97571182250977 1.480511903762817 33.89915084838867 2.428201913833618 36.68912124633789 C 3.291147947311401 39.22967529296875 4.526580810546875 41.61974716186523 6.103280544281006 43.80038070678711 L 10.20011234283447 43.80038070678711 M 4.648351669311523 19.25778198242188 L 5.49321985244751 19.53594970703125 L 5.682771682739258 18.57394218444824 L 6.600051879882812 18.65008163452148 L 6.600051879882812 19.57051277160645 L 6.600051879882812 37.09981155395508 L 4.650311946868896 37.4128532409668 C 3.688091993331909 34.49357223510742 3.200212001800537 31.43876266479492 3.200212001800537 28.33327102661133 C 3.200212001800537 25.22977256774902 3.687431812286377 22.17633247375488 4.648351669311523 19.25778198242188 M 40.9995002746582 25.60013198852539 L 40.9995002746582 12.19962215423584 L 36.40008163452148 12.19962215423584 L 35.40008163452148 12.19962215423584 L 35.40008163452148 11.19962215423584 L 35.40008163452148 8.399871826171875 L 35.40008163452148 7.399871826171875 L 36.40008163452148 7.399871826171875 L 45.45685577392578 7.399871826171875 C 43.40642166137695 5.657624244689941 41.12051773071289 4.241090297698975 38.63511276245117 3.174901962280273 C 35.27094268798828 1.731741905212402 31.69267272949219 1.000001907348633 27.99970245361328 1.000001907348633 C 24.30671119689941 1.000001907348633 20.72845268249512 1.731741905212402 17.36433219909668 3.174901962280273 C 14.87899589538574 4.241082668304443 12.59314823150635 5.6576247215271 10.54278469085693 7.399871826171875 L 19.59988212585449 7.399871826171875 L 20.59988212585449 7.399871826171875 L 20.59988212585449 8.399871826171875 L 20.59988212585449 11.19962215423584 L 20.59988212585449 12.19962215423584 L 19.59988212585449 12.19962215423584 L 14.99983215332031 12.19962215423584 L 14.99983215332031 25.60013198852539 L 40.9995002746582 25.60013198852539 M 18.59988212585449 21.39987182617188 L 19.59988212585449 21.39987182617188 L 25.59982109069824 21.39987182617188 L 25.59982109069824 6.599492073059082 L 19.23321151733398 6.599492073059082 L 18.9204216003418 4.649672031402588 C 21.84221267700195 3.687491893768311 24.89713096618652 3.199621915817261 28.00030136108398 3.199621915817261 C 31.10340118408203 3.199621915817261 34.15671157836914 3.687521934509277 37.07543182373047 4.649771690368652 L 36.76232147216797 6.599492073059082 L 30.3995418548584 6.599492073059082 L 30.3995418548584 21.39987182617188 L 36.40008163452148 21.39987182617188 L 37.40008163452148 21.39987182617188 L 37.40008163452148 22.39987182617188 L 37.40008163452148 23.79975128173828 L 37.40008163452148 24.79975128173828 L 36.40008163452148 24.79975128173828 L 19.59988212585449 24.79975128173828 L 18.59988212585449 24.79975128173828 L 18.59988212585449 23.79975128173828 L 18.59988212585449 22.39987182617188 L 18.59988212585449 21.39987182617188 M 27.99970245361328 56 C 24.17039108276367 56 20.45949172973633 55.24101257324219 16.9700813293457 53.74411010742188 C 13.59955215454102 52.29818344116211 10.58291149139404 50.23105239868164 8.003941535949707 47.60013198852539 L 19.59988212585449 47.60013198852539 L 19.59988212585449 44.80038070678711 L 13.99983215332031 44.80038070678711 L 13.99983215332031 29.39987182617188 L 41.9995002746582 29.39987182617188 L 41.9995002746582 44.80038070678711 L 36.40008163452148 44.80038070678711 L 36.40008163452148 47.60013198852539 L 47.99576187133789 47.60013198852539 C 45.41590118408203 50.23186111450195 42.39899063110352 52.29860305786133 39.02935028076172 53.74411010742188 C 35.53990173339844 55.24101257324219 31.82900238037109 56 27.99970245361328 56 Z M 19.23386192321777 50.40049362182617 L 19.23382186889648 50.40053176879883 C 22.05162239074707 51.32949066162109 24.99997138977051 51.80038070678711 27.99590110778809 51.80038070678711 C 30.99265098571777 51.80038070678711 33.94229125976562 51.32939147949219 36.76296234130859 50.4005126953125 L 29.3995418548584 50.4005126953125 L 29.3995418548584 33.60013198852539 L 36.40008163452148 33.60013198852539 L 36.40008163452148 32.20025253295898 L 19.59988212585449 32.20025253295898 L 19.59988212585449 33.60013198852539 L 26.59982109069824 33.60013198852539 L 26.59982109069824 50.4005126953125 L 19.23386192321777 50.4005126953125 L 19.23386192321777 50.40049362182617 Z M 5.600051879882812 44.80298233032227 C 3.817461967468262 42.43045043945312 2.431731939315796 39.80877304077148 1.481331944465637 37.0107421875 C 0.4983819127082825 34.11695098876953 1.9073486328125e-06 31.08529281616211 1.9073486328125e-06 28.00000190734863 C 1.9073486328125e-06 24.91470146179199 0.4983819127082825 21.88305282592773 1.481331944465637 18.9892520904541 C 2.431731939315796 16.19123268127441 3.817461967468262 13.56955146789551 5.600051879882812 11.19703197479248 L 11.20011234283447 11.19962215423584 L 11.20011234283447 26.60013198852539 L 11.20011234283447 29.39987182617188 L 11.20011234283447 44.80038070678711 L 5.600051879882812 44.80038070678711 L 5.600051879882812 44.80298233032227 Z M 5.597521781921387 19.5703010559082 L 5.598191738128662 19.57051277160645 C 4.670541763305664 22.38803100585938 4.200212001800537 25.33624267578125 4.200212001800537 28.33327102661133 C 4.200212001800537 31.33220100402832 4.671181678771973 34.28170013427734 5.600051879882812 37.09981155395508 L 5.600051879882812 19.57051277160645 L 5.597521781921387 19.5703010559082 Z M 50.3999137878418 44.80268096923828 L 50.3999137878418 44.80059051513672 L 50.3999137878418 44.80038070678711 L 44.79985046386719 44.80038070678711 L 44.79985046386719 11.19962215423584 L 50.3999137878418 11.19962215423584 C 52.18233108520508 13.56947231292725 53.56790161132812 16.19023132324219 54.51870346069336 18.98940277099609 C 55.50159072875977 21.88308143615723 56 24.91469192504883 56 28.00000190734863 C 56 31.08531188964844 55.50159072875977 34.11691284179688 54.51870346069336 37.01060104370117 C 53.56855010986328 39.80788040161133 52.18321228027344 42.42896270751953 50.40120315551758 44.80101013183594 L 50.3999137878418 44.80268096923828 Z M 50.40012359619141 19.23592185974121 L 50.39934158325195 19.23604202270508 L 50.3999137878418 36.76465225219727 C 51.32835006713867 33.94852066040039 51.7997932434082 31.00038146972656 51.7997932434082 28.00189208984375 C 51.7997932434082 25.00506210327148 51.32889175415039 22.05581283569336 50.40012359619141 19.23592185974121 Z M 41.9995002746582 26.60013198852539 L 41.99882125854492 26.60013198852539 L 41.9995002746582 26.60013198852539 Z M 41.9995002746582 26.60013198852539 L 13.99983215332031 26.60013198852539 L 13.99983215332031 11.19962215423584 L 19.59988212585449 11.19962215423584 L 19.59988212585449 8.399871826171875 L 8.003941535949707 8.399871826171875 C 10.58372211456299 5.768131732940674 13.60050201416016 3.701411962509155 16.9700813293457 2.255891799926758 C 20.45949172973633 0.7589918971061707 24.17039108276367 1.9073486328125e-06 27.99970245361328 1.9073486328125e-06 C 31.82900238037109 1.9073486328125e-06 35.53990173339844 0.7589918971061707 39.02935028076172 2.255891799926758 C 42.39994049072266 3.701811790466309 45.41668319702148 5.768941879272461 47.99576187133789 8.399871826171875 L 36.40008163452148 8.399871826171875 L 36.40008163452148 11.19962215423584 L 41.9995002746582 11.19962215423584 L 41.9995002746582 26.59943199157715 L 41.9995002746582 26.60013198852539 Z M 19.59988212585449 22.39987182617188 L 19.59988212585449 23.79975128173828 L 36.40008163452148 23.79975128173828 L 36.40008163452148 22.39987182617188 L 29.3995418548584 22.39987182617188 L 29.3995418548584 5.599492073059082 L 36.76232147216797 5.599492073059082 C 33.94622039794922 4.671072006225586 30.9983024597168 4.199621677398682 28.00030136108398 4.199621677398682 C 25.00356101989746 4.199621677398682 22.05388259887695 4.67061185836792 19.23321151733398 5.599492073059082 L 26.59982109069824 5.599492073059082 L 26.59982109069824 22.39987182617188 L 19.59988212585449 22.39987182617188 Z" stroke="none" fill="#bf2a2a"/>
      </g>
    </g>
  </g>
</svg>
